<?xml version="1.0" encoding="UTF-8" standalone="no"?>
<!DOCTYPE svg PUBLIC "-//W3C//DTD SVG 1.1//EN" "http://www.w3.org/Graphics/SVG/1.1/DTD/svg11.dtd">
<svg width="100%" height="100%" viewBox="0 0 832 387" version="1.1" xmlns="http://www.w3.org/2000/svg" xmlns:xlink="http://www.w3.org/1999/xlink" xml:space="preserve" xmlns:serif="http://www.serif.com/" style="fill-rule:evenodd;clip-rule:evenodd;stroke-linejoin:round;stroke-miterlimit:2;">
    <g transform="matrix(1,0,0,1,112.767,292.114)">
        <g id="Layer_2">
            <g>
                <path d="M22.842,0L22.842,-159.467L68.313,-159.467L68.313,-136.625C69.238,-144.31 71.604,-150.038 75.411,-153.81C79.218,-157.581 84.466,-159.467 91.154,-159.467L113.996,-159.467C126.449,-159.467 137.141,-154.966 146.071,-145.965C155.002,-136.963 159.467,-126.236 159.467,-113.783L159.467,0L113.996,0L113.996,-113.783C113.996,-120.045 111.737,-125.417 107.219,-129.9C102.7,-134.383 97.345,-136.625 91.154,-136.625C84.893,-136.625 79.52,-134.383 75.037,-129.9C70.554,-125.417 68.313,-120.045 68.313,-113.783L68.313,0L22.842,0Z" style="fill-rule:nonzero;"/>
                <path d="M217.782,-204.938L263.466,-204.938C275.919,-204.938 286.61,-200.454 295.541,-191.488C304.471,-182.522 308.936,-171.849 308.936,-159.467L308.936,-45.471C308.936,-33.16 304.471,-22.504 295.541,-13.502C286.61,-4.501 275.919,0 263.466,0L217.782,0C205.329,0 194.638,-4.465 185.707,-13.396C176.777,-22.326 172.311,-33.018 172.311,-45.471L172.311,-159.467C172.311,-171.92 176.777,-182.611 185.707,-191.542C194.638,-200.472 205.329,-204.938 217.782,-204.938ZM218.316,-41.948C219.454,-35.615 221.891,-30.847 225.627,-27.645C229.363,-24.443 234.362,-22.842 240.624,-22.842C246.957,-22.842 252.347,-25.083 256.795,-29.567C261.242,-34.05 263.466,-39.351 263.466,-45.471L263.466,-122.856L218.316,-41.948ZM263.039,-163.31C259.908,-175.834 252.436,-182.096 240.624,-182.096C234.362,-182.096 228.989,-179.872 224.506,-175.424C220.023,-170.977 217.782,-165.658 217.782,-159.467L217.782,-81.975L263.039,-163.31Z" style="fill-rule:nonzero;"/>
                <path d="M321.781,0L321.781,-204.938L412.935,-204.938C425.388,-204.938 436.08,-200.454 445.01,-191.488C453.941,-182.522 458.406,-171.849 458.406,-159.467L458.406,-136.625C458.406,-124.172 453.941,-113.481 445.01,-104.55C436.08,-95.62 425.388,-91.154 412.935,-91.154L367.251,-91.154L367.251,0L321.781,0ZM367.251,-113.783L390.093,-113.783C396.284,-113.783 401.639,-116.042 406.158,-120.561C410.676,-125.079 412.935,-130.434 412.935,-136.625L412.935,-159.467C412.935,-165.658 410.676,-170.977 406.158,-175.424C401.639,-179.872 396.284,-182.096 390.093,-182.096L367.251,-182.096L367.251,-113.783Z" style="fill-rule:nonzero;"/>
                <path d="M471.25,0L471.25,-204.938L516.721,-204.938L516.721,-136.625C517.646,-144.31 520.012,-150.038 523.819,-153.81C527.626,-157.581 532.874,-159.467 539.563,-159.467L562.405,-159.467C574.858,-159.467 585.549,-154.966 594.48,-145.965C603.41,-136.963 607.875,-126.236 607.875,-113.783L607.875,0L562.405,0L562.405,-113.783C562.405,-120.045 560.146,-125.417 555.627,-129.9C551.108,-134.383 545.754,-136.625 539.563,-136.625C533.301,-136.625 527.928,-134.383 523.445,-129.9C518.962,-125.417 516.721,-120.045 516.721,-113.783L516.721,0L471.25,0Z" style="fill-rule:nonzero;"/>
            </g>
        </g>
    </g>
</svg>
